<svg width="127" height="45" viewBox="0 0 127 45" fill="none" xmlns="http://www.w3.org/2000/svg">
<g clip-path="url(#clip0_30_2505)">
<path d="M85.8403 17.7719C87.7409 17.7719 89.2816 16.2312 89.2816 14.3306C89.2816 12.4301 87.7409 10.8894 85.8403 10.8894C83.9398 10.8894 82.399 12.4301 82.399 14.3306C82.399 16.2312 83.9398 17.7719 85.8403 17.7719Z" fill="white"/>
<path d="M92.0139 34.8985V39.6143L79.7066 39.7497V35.1455L82.9567 35.0658L82.9885 23.4993L79.9774 23.356L79.9057 19.1261H88.8992C88.8992 19.1261 88.9072 32.6601 88.9311 35.0658L92.0059 34.8985H92.0139Z" fill="white"/>
<path d="M124.236 21.7628C123.782 23.0214 120.245 34.4524 120.07 35.2888C119.416 37.8459 118.7 40.8729 116.62 42.6971C114.462 44.7523 110.558 44.2186 107.428 44.3381V39.447C108.718 39.4311 110.503 39.5904 111.594 38.8894C112.741 38.1884 113.442 34.5241 113.578 34.0382C112.94 31.8476 109.746 23.4675 109.061 21.5557L106.735 21.5875L106.424 16.7682L113.538 16.6328C113.856 17.3099 116.612 25.9289 116.82 26.4149C117.162 25.6262 119.863 17.4214 120.133 16.7682C120.364 16.7443 127 16.7682 127 16.7682L126.793 21.7309L124.228 21.7628H124.236Z" fill="white"/>
<path d="M19.5961 6.70727L21.3008 1.80029L16.338 0L14.1235 6.3966L8.01367 9.37584L1.76046 7.10556L0 12.1878L4.80343 13.9244L3.09873 18.8313L8.06147 20.6316L10.276 14.235L16.3858 11.2558L22.639 13.5181L24.3995 8.44383L19.5961 6.70727Z" fill="white"/>
<path d="M77.3726 34.548C74.9032 34.4046 70.968 34.8667 70.4821 31.1944C70.2431 29.3622 69.9165 26.5264 70.8884 25.1483C71.6053 24.1366 72.9356 24.2402 74.1384 24.2402L74.4491 26.7893L77.8983 26.6459L77.8665 18.8871C65.3282 17.0151 63.3287 22.5753 64.8423 33.7036C65.4716 40.5702 72.9197 39.8374 77.3726 39.925V34.548Z" fill="white"/>
<path d="M105.094 39.8772V34.4285C104.337 34.5401 100.625 35.3048 100.537 33.3292C100.434 31.1785 100.251 25.1323 100.139 24.2959C101.047 24.2959 103.819 24.272 104.616 24.2959L104.377 19.1579C104.377 19.1579 100.378 19.1818 99.9638 19.1579L99.7886 13.0401H94.1248L94.1567 19.1579H91.2491C91.2332 20.2572 91.281 23.5153 91.3208 24.1924C91.3208 24.1924 93.7584 24.2083 94.2284 24.2242C94.2284 26.1201 94.3479 30.0314 94.4435 33.0106C94.4594 33.6558 94.4753 35.1534 94.4753 35.3287C94.4833 38.1167 96.1561 39.9728 98.8486 40.0285C99.5337 40.0445 102.903 40.0843 105.094 39.8772Z" fill="white"/>
<path d="M62.8587 39.8294L62.6198 34.3807C61.2098 34.548 58.8121 34.9861 58.1111 33.7196C57.657 33.162 57.7765 25.0846 57.665 24.2481C58.5731 24.2481 61.3452 24.2242 62.1418 24.2481L61.9028 19.1101C61.9028 19.1101 57.904 19.134 57.4897 19.1101L57.2189 12.9923H51.6508L51.6826 19.1101H48.7751C48.7591 20.2094 48.8069 23.4675 48.8468 24.1446C48.8468 24.1446 51.2843 24.1605 51.7543 24.1764C51.7543 26.4865 51.9296 31.7759 52.0172 34.7472C52.0729 38.1406 53.8095 39.917 57.195 40.0046C59.067 40.1002 60.6602 40.0445 62.8587 39.8374V39.8294Z" fill="white"/>
<path d="M42.251 27.0442C42.2829 25.9608 42.3386 25.1642 42.267 24.2641C42.2271 23.7861 41.8687 23.3799 41.4226 23.1966C40.8411 22.9577 40.0445 22.9497 39.463 23.1966C39.0726 23.3639 38.7938 23.7304 38.7381 24.1525C38.6106 25.0527 38.6823 26.1599 38.6982 27.0442H42.251ZM38.9452 33.8629C39.678 35.2012 43.6132 34.7153 46.0109 34.5958V39.7577C41.7651 39.9329 35.8624 41.088 33.8948 37.0015C33.7116 36.6112 33.3133 35.5358 33.2416 35.1136C32.6442 31.5528 32.3415 26.5742 33.3213 22.6709C33.8231 20.6874 35.3526 19.1181 37.3361 18.6322C39.4391 18.1144 41.9164 18.1622 43.8362 18.8791C44.9594 19.3013 45.8357 20.2015 46.2818 21.3167C47.4766 24.28 46.7438 31.0669 46.7438 31.0669L38.6425 31.0988C38.6425 31.0988 38.3398 32.6362 38.9531 33.8629" fill="white"/>
<path d="M30.8757 23.7702C30.8518 18.2897 24.7102 15.2467 21.006 19.8111C20.4006 18.8712 18.7995 16.5611 18.1383 15.6211L12.8569 18.0507C13.4544 19.8908 14.5218 21.6672 14.7289 23.6666C14.7687 24.041 14.8245 39.6621 14.8245 39.6621L12.0842 40.0126L12.0125 44.362L24.1127 44.2186V40.0126L21.0618 39.7338L20.9582 36.8342C31.2661 41.3907 31.0749 30.8598 30.8678 23.7941L30.8757 23.7702ZM24.1844 31.8078C24.1844 32.6362 23.5551 33.3292 22.9258 33.3292C22.0973 33.3292 21.5716 32.6521 21.5716 31.8157L21.4123 24.1366C21.4123 23.3082 22.0894 22.7585 22.9258 22.7585C24.1047 22.7585 24.4393 23.8339 24.4393 24.6624L24.1844 31.8078Z" fill="white"/>
</g>
<defs>
<clipPath id="clip0_30_2505">
<rect width="127" height="44.346" fill="white"/>
</clipPath>
</defs>
</svg>
